#!OML:ASF E:/inclinewalkrobotboard/Project1/Captureday1/Session1/subject1.ASF
:FULLY-SPECIFIED
:DEGREES
138
root 0 0 0 1.3141424458823838 -3.856187359897336 1.8327018578449725
lowerback 12.16914688968071 0.8578797225755408 -0.059832911034778946
upperback -4.385672307447331 1.0952752354391484 -0.5682184805487808
thorax -11.618316105497463 0.4976691412271255 -0.8201787825365374
lowerneck -6.009190184972578 1.593710692991351 4.4633917832817405
upperneck 18.387357579590628 3.0988950434196187 -8.196956012176612
head 6.743133027373158 1.134253210315173 -3.143111098062829
rclavicle 1.9274291151363645E-15 -3.955675155693866E-16
rhumerus 21.25304712955284 15.771897229358158 -47.63761265656278
rradius 73.64606182559169
rwrist 26.822988168412028
rhand -34.65878745027351 -57.66306057213314
rfingers 7.125020000000014
rthumb -7.7996744110896845 -87.60686319655935
lclavicle -4.3648449650126336E-16 -1.023991870532216E-15
lhumerus 22.123973889044166 -12.52801917524357 43.86210349986426
lradius 71.11672149333947
lwrist -23.56247567317741
lhand -44.62153288383236 -71.13318594961231
lfingers 7.125020000000031
lthumb -17.40112543193092 -41.834201271249
rfemur -25.225863615223346 -2.2179025571917323 17.203218382869203
rtibia 54.19993699340738
rfoot -29.698245487781215 -16.770031182230305
rtoes -18.42360327499584
lfemur -26.485066001811717 2.2918300742206923 -17.628124699391147
ltibia 53.333829815986476
lfoot -32.59396364816928 -2.6156650105602153
ltoes -21.0152879644618
139
root 0 0 0 1.31386733295918 -3.856434280700367 1.8328581432222504
lowerback 12.169243492894589 0.8579126594915631 -0.06011732276386761
upperback -4.3862110563294765 1.0952828654963822 -0.5683684494671922
thorax -11.618970092309393 0.49768084219610853 -0.8202087486073031
lowerneck -6.008197592446606 1.59408229236883 4.463424861972298
upperneck 18.387656594602014 3.0994115666450783 -8.197141841645943
head 6.743058111362306 1.1344932346207481 -3.143105135905058
rclavicle 1.925552469693071E-15 -4.0454900389684233E-16
rhumerus 21.252881241277514 15.771651949386763 -47.63827993065848
rradius 73.64642716009519
rwrist 26.82188961744056
rhand -34.65997670785086 -57.66193270784245
rfingers 7.125020000000014
rthumb -7.800802514801756 -87.60635356029758
lclavicle -4.3541139841295253E-16 -1.0073504606210828E-15
lhumerus 22.12178703491854 -12.527348119568549 43.86666865606098
lradius 71.11280891670347
lwrist -23.55878029138536
lhand -44.62213666383181 -71.12918000222092
lfingers 7.125020000000031
lthumb -17.401704443408622 -41.832728814839356
rfemur -25.230232453129965 -2.218074958508982 17.20014867631553
rtibia 54.199880458799115
rfoot -29.699232089325783 -16.76561415257189
rtoes -18.43423000887166
lfemur -26.489758030724364 2.2900918219465236 -17.630536337506516
ltibia 53.33654047227604
lfoot -32.59763323200872 -2.6136938770126408
ltoes -21.00513215608457
140
root 0 0 0 1.3139273715328583 -3.8538253208986006 1.8326686495349844
lowerback 12.169269015656218 0.8576808293127588 -0.059892057951383415
upperback -4.386119447359982 1.0949994948719057 -0.568394735221884
thorax -11.618894192352471 0.49752266634993414 -0.820302527086537
lowerneck -6.010392890651771 1.5942131375778865 4.46381662762293
upperneck 18.388625421957578 3.09947766875018 -8.197273738932989
head 6.743694790216032 1.134488458906481 -3.143219712390045
rclavicle 1.9314759547313486E-15 -4.0367996358233756E-16
rhumerus 21.253413175211513 15.771912582581463 -47.637684188397216
rradius 73.64708094061008
rwrist 26.822703195250348
rhand -34.66055921499557 -57.66386499691672
rfingers 7.125020000000014
rthumb -7.80145481699817 -87.60792179469544
lclavicle -4.3766787149401323E-16 -1.019613229538543E-15
lhumerus 22.124239402490964 -12.52922002260023 43.86431499245969
lradius 71.11752199041578
lwrist -23.56045396048841
lhand -44.62165261337805 -71.1328336097665
lfingers 7.125020000000031
lthumb -17.40115729321999 -41.834791138372125
rfemur -25.23118566932399 -2.2180950346261614 17.20081279150892
rtibia 54.19631716292541
rfoot -29.6987476679371 -16.76711352786419
rtoes -18.43329693660059
lfemur -26.48891438469074 2.290786876347455 -17.627717420392962
ltibia 53.32979085105809
lfoot -32.600604453415414 -2.6131164609472726
ltoes -21.017577682994503
141
root 0 0 0 1.313855809071201 -3.853490586783801 1.8326158815421465
lowerback 12.169250178755433 0.857646343489344 -0.059880302633238736
upperback -4.386180584379704 1.094956374675964 -0.568394498329395
thorax -11.618958217513047 0.49749959436065055 -0.8203048585368216
lowerneck -6.010507862512023 1.5942874368265991 4.463885009673505
upperneck 18.38881175477257 3.099569071904914 -8.197328975376461
head 6.743769155267946 1.1345256877917715 -3.143239106385397
rclavicle 1.932154950667562E-15 -4.031728090913257E-16
rhumerus 21.253195942115774 15.771652276687194 -47.63764160699415
rradius 73.64696703393872
rwrist 26.82280980589664
rhand -34.66073311109773 -57.663898016363326
rfingers 7.125020000000014
rthumb -7.801616977757828 -87.60806260471733
lclavicle -4.372057289033543E-16 -1.0196016273732389E-15
lhumerus 22.124603031937504 -12.529345162308791 43.86398085942936
lradius 71.11791089306969
lwrist -23.56070556698036
lhand -44.621646275470084 -71.13322846906402
lfingers 7.125020000000031
lthumb -17.40115524088079 -41.83521429760438
rfemur -25.231133752695676 -2.2180223577012015 17.200906395267026
rtibia 54.19604091802627
rfoot -29.698933313461275 -16.767254585325958
rtoes -18.433079681703372
lfemur -26.48846538683539 2.290812965491179 -17.62735341541216
ltibia 53.32994178456203
lfoot -32.59988423462518 -2.61387234568807
ltoes -21.019732216923497
